<svg height="2048" viewBox="0 0 2048 2048" width="2048" xmlns="http://www.w3.org/2000/svg" xmlns:xlink="http://www.w3.org/1999/xlink"><mask id="a" fill="#fff"><path d="m443.738 60.277c-15.379 9.323-30.032 19.924-44.319 30.824-10.447 7.969-16.356 5.584-22.341-5.105-12.726-22.719-7.787-42.451 10.94-60.522-1.28-.609-2.557-1.219-3.838-1.828-7.201 7.947-14.399 15.894-21.828 24.092-2.868-2.321-5.998-4.862-12.159-9.86 5.489 17.248 8.872 30.993 14.207 43.966 10.614 25.813 12.825 52.55 4.401 78.401-13.122 40.256-28.908 79.705-44.425 119.17-4.82 12.253-12.271 12.608-18.925 1.068-26.614-46.152-68.475-74.994-114.446-99.648-20.535-11.013-41.439-21.793-60.403-35.11-26.873-18.879-43.596-43.728-40.088-78.654 1.674-16.644.288-33.587.288-50.395-.48.009-.957.016-1.437.022-2.272 19.076-4.548 38.148-7.138 59.869-33.216-18.548-49.882-44.98-67.555-71.08 3.517 10.655 7.038 21.313 10.686 32.363-7.883 2.331-14.169 4.19-25.358 7.498 10.888 4.385 17.418 7.048 23.976 9.652 23.098 9.169 45.942 20.581 57.252 42.807 16.001 31.426 38.261 56.244 66.805 76.586 6.459 4.601 11.619 10.956 16.531 15.689-43.375 25.296-84.535 49.293-122.677 71.535 16.054 1.546 37.722-6.492 60.226-24.382 41.778-33.206 86.457-38.458 124.509-10.05 19.377 14.468 38.212 33.242 49.277 54.152 35.425 66.952 30.774 134.093-9.371 198.51-14.976 24.029-21.73 23.813-36.84-.031-10.578-16.695-22.443-32.115-39.569-40.42 9.659 14.418 21.239 28.741 29.512 44.714 14.794 28.552 14.692 59.972 11.2 90.717-10.184 89.637 5.303 174.073 50.125 252.955 31.719 55.82 38.162 114.649 22.734 176.114-18.384 73.237-34.042 146.739-35.012 222.715-1.155 90.598-2.803 181.152 14.509 270.724 12.828 66.361 36.471 128.297 85.149 177.781 77.655 78.935 174.424 98.084 280.804 80.877 83.243-13.462 156.051-51.14 223.768-99.082 14.332-10.149 28.178-20.967 42.245-31.474-11.146 1.872-20.465 6.521-29.798 11.147-67.611 33.513-137.964 58.409-214.277 63.077-79.438 4.856-152.611-12.492-215.273-62.938-61.546-49.544-92.154-116.675-108.477-190.817-22.164-100.691-23.877-202.475-12.159-304.538 7.809-68.032 21.876-134.953 59.839-193.516 39.73-61.298 82.888-120.46 124.691-180.458 8.866-12.721 22.363-16.368 34.984-8.883 11.279 6.691 22.238 16.51 28.885 27.535 12.374 20.524 12.493 44.044 8.268 67.166-7.023 38.424-7.295 76.001 12.274 111.512 20.667 37.504 27.091 74.374-5.3 109.881 23.506-16.777 33.645-39.829 36.347-66.896.39-3.924 3.181-7.614 6.177-14.39-40.271-37.004-49.143-85.694-38.827-141.939 7.675-41.832.4-82.5-35.272-113.157-9.835-8.453-9.166-18.334 2.452-24.237 22.578-11.474 44.976-24.469 69.048-31.721 70.149-21.137 145.719-1.04 182.319 53.307 46.131 68.504 71.611 141.766 23.425 221.622-14.297 23.694-16.627 50.719-14.316 78.185 7.121-39.132 21.582-74.934 47.05-106.709 4.775 44.223 24.971 82.261 41.454 121.965 19.7 47.459 19.198 97.081-.071 145.567-2.758 6.945-4.054 14.298-16.181 12.404-51.717-8.069-93.527 27.525-93.863 79.086-.25 37.916 16.138 70.782 34.702 107.547 25.794-15.513 51.703-28.784 74.962-45.583 42.809-30.92 61.99-97.492 1.424-137.463 7.874-22.973 17.553-45.206 22.863-68.403 5.252-22.952 6.094-46.877 8.872-70.379 1.671-.417 3.345-.836 5.015-1.254 37.573 39.321 51.227 90.502 69.195 139.854-6.183-28.04-13.25-55.801-22.411-82.881-10.123-29.919-22.305-59.79-48.573-79.72-40.283-30.563-56.472-71.347-60.806-119.455-5.966-66.249-16.262-131.813-42.063-194.047-2.25-5.431-3.22-11.374-4.782-17.081 1.236-1.445 2.471-2.889 3.704-4.332 17.786 7.379 35.895 14.088 53.297 22.255 85.841 40.275 144.196 104.193 171.347 194.314 25.608 85.006 36.727 171.999 32.768 260.449-4.196 93.795-33.664 179.248-99.329 249.059-100.782 107.154-224.321 153.369-371.065 116.631-148.725-37.237-250.71-160.613-268.448-315.603-3.675-32.121-6.629-64.32-9.916-96.484-5.15 71.771-4.666 142.881 7.743 213.379 14.076 79.981 46.607 151.313 108.687 206.652 91.037 81.156 198.399 96.425 313.69 67.48 250.039-62.778 420.992-311.648 393.946-564.239-18.755-175.187-153.986-336.064-301.184-367.126-11.292-2.381-23.759-7.831-24.341-21.645-.597-14.104 12.693-16.224 22.926-20.229 3.956-1.548 8.005-2.883 11.9-4.567 31.526-13.632 52.078-37.844 67.105-67.367-2.301.409-3.297 2.08-4.359 3.704-42.009 64.266-104.579 76.347-175.035 64.122-45.951-7.972-91.874-16.331-137.849-5.529-30.345 7.127-59.077 20.644-89.141 29.247-11.967 3.424-26.082 3.685-38.338 1.197-20.804-4.219-35.172-18.793-46.361-36.085-48.714-75.279-18.919-187.56 62.998-235.638 57.929-34.002 120.979-46.038 187.466-36.411 31.997 4.633 63.363 13.532 94.96 20.734 35.947 8.192 68.978 6.37 99.275-18.721 10.937-9.055 27.654-14.018 42.284-15.466 18.064-1.791 36.708 2.029 55.099 3.423-28.828-15.136-58.595-23.737-90.623-10.513-12.732 5.258-24.953 11.782-37.166 18.178-19.511 10.211-39.999 14.116-61.821 10.079-37.627-6.957-75.219-14.075-112.842-21.051-13.587-2.519-27.532-3.798-40.674-7.711-5.617-1.675-10.822-8.023-13.68-13.517-1.024-1.963 4.696-8.619 8.597-11.477 9.372-6.87 19.473-12.781 29.309-19.035 19.351-12.304 35.745-27.126 45.407-50.766-37.595 35.61-37.595 35.61-47.136 24.029 1.271 14.05-7.729 21.74-18.208 27.312-23.861 12.687-47.613 25.851-72.495 36.345-43.004 18.137-83.899 38.94-115.656 73.687-6.382 6.979-12.476 7.246-19.412 2.07-29.702-22.167-63.414-27.554-99.783-25.016-21.093 1.47-31.472-6.945-33.063-27.538-1.559-20.175-3.617-41.741 1.783-60.714 12.706-44.631 29.852-88.041 44.975-132.019 18.522-53.851 49.472-97.528 100.517-127.245 14.428-8.4 24.19-24.516 36.094-37.097-1.101-.954-2.202-1.912-3.3-2.867-7.864 9.118-15.728 18.24-23.592 27.358-1.332-.772-2.666-1.548-3.998-2.324 1.3-10.733 2.602-21.466 3.902-32.199-10.025 24.01-20.773 46.095-44.176 60.277zm-89.01 774.515c-34.474-33.028-56.255-73.878-67.47-119.072-9.765-39.354-14.595-79.884-21.604-119.895 1.45-.22 2.903-.443 4.353-.662-1.588-54.084 10.408-103.684 48.282-145.216 27.214-29.84 59.906-44.126 101.073-37.382 30.486 4.994 41.964 22.958 31.373 50.936-18.631 49.214-31.68 99.638-16.599 151.538 7.131 24.545 19.864 48.577 34.753 69.647 21.828 30.89 22.558 60.812 6.104 92.794-14.011 27.234-34.059 49.177-61.319 64.292-10.574 5.863-19.342 8.912-27.516 8.912-10.598 0-20.196-5.127-31.43-15.892z" fill="#fff" fill-rule="evenodd"/></mask><mask id="b" fill="#fff"><path d="m455.465378 11.057c14.781 25.144 39.349 38.996 63.424 53.693 7.137 4.357 12.367 11.726 18.475 17.713-7.714 4.671-15.322 9.524-23.202 13.899-2.186 1.213-5.192.98-7.81 1.47-32.94 6.154-66.337 10.598-98.704 18.9-43.964 11.274-85.193 10.667-124.017-15.228-6.039-4.027-13.487-6.21-20.513-8.597-29.74-10.111-56.801-2.638-82.64 12.197 2.752.729 5.338.405 7.905-.044 33.278-5.82 66.122-8.409 93.812 16.117 22.257 19.71 48.522 23.269 76.3 17.939 39.137-7.508 77.676-18.53 117.045-24.25 56.216-8.163 110.493 1.467 161.041 27.513 5.882 3.034 9.042 11.154 13.465 16.918-6.543 1.479-13.174 4.536-19.611 4.175-35.293-1.983-70.203-2.001-103.47 11.905 5.158-.608 10.339-1.091 15.446-1.983 52.51-9.184 102.059-4.243 145.354 29.649 6.03 4.724 10.95 10.815 16.385 16.271-.868.71-1.735 1.419-2.603 2.13-3.735-1.77-7.469-3.539-11.204-5.309 9.168 10.439 18.658 20.693 25.637 32.391 33.913 56.866 50.051 119.672 58.222 184.362 3.201 25.355-8.411 36.092-34.551 35.049-43.036-1.712-83.604 6.907-122.709 23.909-8.259 3.591-16.836 6.594-25.475 9.21-27.285 8.264-44.367-1.925-43.183-29.925 1.021-24.083 7.957-48.015 13.391-71.767 1.944-8.491 7.155-16.262 10.877-24.359-9.113 8.198-17.073 17.266-20.798 27.782-8.703 24.554-16.241 49.592-22.604 74.833-5.767 22.877-12.459 29.555-36.659 30.591-52.466 2.246-96.763-30.609-109.159-80.955-1.204-4.887-2.496-9.756-3.748-14.634-1.248 11.572-1.677 22.873-1.133 34.131.596 12.26-4.192 17.813-16.992 15.454-4.708-.867-9.503-1.319-14.164-2.359-41.128-9.184-80.633-3.951-118.279 13.915-89.312 42.383-150.6039998 111.757-186.8769998 200.317-72.409 176.777-51.23300005 345.833 61.4529998 499.905 92.62 126.639 218.557 204.051 380.554 214.725 148.955 9.813 279.747-80.861 322.076-221.308 27.445-91.067 26.815-184.646 24.126-278.363-2.157 8.569-3.095 17.277-4.186 25.968-4.305 34.231-6.846 68.79-13.292 102.631-40.568 213.003-222.337 310.672-392.772 293.164-172.634-17.735-326.3289998-173.655-337.8769998-345.774-4.584-68.347-1.396-135.959 10.418-203.231 9.7009998-55.254 22.7469998-109.567 51.4409998-159.061 60.719-104.724 150.885-135.289 264.352-91.396 28.428 10.997 59.205 16.255 89.061 23.514 9.237 2.246 19.159 1.668 28.496 3.631 20.077 4.219 25.064 18.357 11.26 32.853-8.687 9.118-19.694 16.107-28.439 25.185-19.661 20.411-41.525 39.606-57.138 62.771-29.276 43.438-61.836 82.671-108.841 108.292-26.934 14.678-44.515 36.814-49.783 65.803-4.721 25.964-5.374 52.76-6.161 79.236-.365 12.26 3.213 24.633 5.031 37.144-4.234 1.875-7.551 3.37-10.889 4.815-41.63 18.017-58.459 62.294-37.825 102.073 21.829 42.09 63.537 58.927 103.723 79.469 17.572-36.534 34.308-70.47 33.239-109.554-.998-36.399-30.809-73.181-63.267-74.209-18.202-.574-23.064-7.905-23.073-23.096 0-4.702-.698-9.401-.801-14.11-1.162-53.853 11.612-103.498 58.499-135.741 42.018-28.895 75.993-63.695 102.68-106.015 19.099-30.283 43.811-55.183 73.298-75.713 19.124-13.315 37.893-27.148 57.356-39.967 37.234-24.525 77.216-41.647 122.893-44.452 118.968-7.303 210.033 84.825 195.54 200.523-4.593 36.656-14.287 72.788-23.061 108.829-16.239 66.751-16.899 134.787-19.418 202.741-2.464 66.463-6.574 132.777-25.666 197.16-43.327 146.114-149.288 222.284-304.254 219.674-83.064-1.401-158.768-27.569-231.689-63.895-8.312-4.14-16.538-8.444-24.802-12.671-.833 1.331-1.664 2.666-2.497 3.997 23.932 17.073 47.166 35.2 71.929 51.018 75.244 48.068 155.949 81.633 247.295 84.533 107.965 3.424 197.743-32.357 261.673-120.401 41.685-57.413 60.16-123.608 65.044-192.765 4.861-68.856 5.902-138.003 7.307-207.051 1.45-71.381 7.771-141.813 27.372-211.043 21.537-76.058 15.859-149.59-31.495-216.125-17.049-23.95-36.564-46.318-56.104-68.428-35.147-39.769-60.585-84.266-74.969-135.186-10.232-36.217-21.502-72.226-34.187-107.679-25.345-70.857-73.573-121.211-144.038-151.243-29.773-12.69-59.03-26.593-88.092-40.794-8.888-4.344-19.197-9.976-23.605-17.847-3.997-7.137-.845-18.127-.845-25.792-2.288 5.695-5.312 13.215-9.595 23.876-13.699-12.062-25.631-22.566-39.41-34.7 2.346 4.957 3.569 8.145 5.281 11.057zm69.588 164.552.391.414c.506-.218 1.014-.434 1.521-.646-.637.075-1.275.152-1.912.232zm152.74 34.577c4.183 1.983 8.366 3.966 12.55 5.949-2.691-3.063-5.353-6.143-7.916-9.279-1.546 1.109-3.089 2.221-4.634 3.33z" fill="#fff" fill-rule="evenodd"/></mask><mask id="c" fill="#fff"><path d="m427.668 2.591c-4.695 9.948-9.349 19.918-14.022 29.875-26.443 56.348-63.468 103.955-118.213 136.641-67.232 40.143-140.381 41.789-215.077 30.223-26.598-4.118-52.779-10.827-80.356-16.607 114.635 60.491 313.456 91.886 431.988-66.399 1.813 2.016 3.727 3.772 5.193 5.832 34.692 48.781 83.028 79.058 139.635 97.007 101.531 32.196 195.003 2.566 286.41-38.39-22.692 5.339-45.219 11.52-68.106 15.852-62.424 11.811-124.74 15.787-185.831-7.108-83.709-31.37-134.85-93.937-170.218-171.55-2.668-5.858-5.51-11.638-8.516-17.967-2.163 1.919-2.691 2.18-2.887 2.591z" fill="#fff" fill-rule="evenodd"/></mask><mask id="d" fill="#fff"><path d="m136.258 7.455c-37.175 11.527-64.95 33.509-76.169 71.491-3.489 11.81-3.949 24.484-5.675 35.952-18.496 6.022-36.456 11.867-54.414 17.713 15.309-.766 29.481-4.922 43.743-8.739 8.978-2.399 15.412-.917 20.917 8.434 11.269 19.145 30.291 27.337 52.103 28.396 43.004 2.085 73.426-20.424 95.268-53.191 19.328-28.999 34.253-60.824 52.404-93.724-27.301-8.549-53.032-13.787-78.295-13.787-16.728 0-33.255 2.299-49.882 7.455z" fill="#fff" fill-rule="evenodd"/></mask><mask id="e" fill="#fff"><path d="m0 14.264c9.016 19.628 16.499 37.514 25.359 54.711 7.189 13.953 14.201 28.675 24.59 40.184 13.93 15.426 29.341 30.874 47.146 41.346 35.86 21.099 83.368 12.338 103.385-20.923 2.028-3.373 10.805-5.101 15.731-4.118 16.931 3.386 33.543 8.318 50.275 12.659-15.718-8.271-32.057-14.606-48.941-18.856-9.266-2.334-13.437-5.104-13.266-15.272.537-32.306-14.925-57.199-40.485-76.165-27.124-20.127-55.394-27.83-84.816-27.83-25.468 0-51.8 5.776-78.978 14.264z" fill="#fff" fill-rule="evenodd"/></mask><mask id="f" fill="#fff"><path d="m110.065 1.162c-38.434 6.741-61.171 32.234-76.234 64.942-12.216 26.524-22.104 54.083-33.831 83.192 45.918 6.508 89.997 14.047 132.62-6.904 26.463-13.008 44.803-33.101 52.199-61.867 11.11-43.208-19.187-80.525-61.623-80.525-4.264 0-8.651.376-13.131 1.162z" fill="#fff" fill-rule="evenodd"/></mask><mask id="g" fill="#fff"><path d="m18.9523636 18.93c-19.81799996 20.263-23.92099996 44.814-13.11899996 71.221 13.08099996 31.976 37.71599996 51.925 70.70899996 60.77 35.1330004 9.42 70.6770004 5.221 110.2810004-1.856-13.666-32.558-25.314-63.378-39.464-93.052-11.621-24.362-30.489-42.86-57.4320004-51.52-9.064-2.914-17.962-4.493-26.537-4.493-16.361 0-31.544 5.748-44.438 18.93z" fill="#fff" fill-rule="evenodd"/></mask><mask id="h" fill="#fff"><path d="m25.6123081 66.744c-19.79199998 23.225-27.97999998 50.245-25.02599998 80.066 2.273 22.895 11.39099998 43.077 34.46199998 52.557 22.58 9.275 42.588.634 60.796-12.81 16.4129999-12.121 25.8259999-28.807 31.1519999-47.907 13.052-46.821 3.162-91.855-11.158-138.65-34.5949999 18.808-65.9039999 38.207-90.2259999 66.744z" fill="#fff" fill-rule="evenodd"/></mask><mask id="i" fill="#fff"><path d="m2.59443223 80.796c-6.296 30.625-1.559 59.365 18.90599997 82.751 19.866 22.707 43.404 42.322 67.492 65.366 5.899-25.704 10.549-45.524 14.9879998-65.391 14.595-65.306-26.1209998-140.099-87.0959998-163.522-4.654 26.64-8.75399997 53.86-14.28999997 80.796z" fill="#fff" fill-rule="evenodd"/></mask><mask id="j" fill="#fff"><path d="m.08665104 115.905c-1.21 36.289 10.55299996 72.999 16.51199996 109.52 2.343.698 4.686 1.395 7.029 2.089 19.13-18.601 39.643-36.047 57.052-56.093 23.252-26.781 28.949-58.154 19.104-92.63-7.287-25.515-12.393-51.63-18.781-78.791-40.882 28.464-79.13999996 62.558-80.91599996 115.905z" fill="#fff" fill-rule="evenodd"/></mask><mask id="k" fill="#fff"><path d="m55.07 23.519c-28.767 25.164-42.992 58.534-55.07 94.814 40.235 10.632 79.312 15.118 118.053.047 24.552-9.549 40.962-27.645 48.224-52.874 8.591-29.837-8.431-57.912-39.407-63.987-5.238-1.028-10.329-1.519-15.286-1.519-21.247 0-39.957 9.032-56.514 23.519z" fill="#fff" fill-rule="evenodd"/></mask><mask id="l" fill="#fff"><path d="m4.93978046 72.936c-6.603 26.215-7.893 52.613 4.346 78.131 10.36700004 21.61 30.79400004 34.03 54.83700004 32.852 22.561-1.108 39.6619995-14.314 47.6289995-37.592 6.99-20.427 3.29-40.171-5.576-59.238-16.8799995-36.291-45.7269995-62.033-79.5139995-87.089-7.816 25.942-15.744 49.201-21.72200004 72.936z" fill="#fff" fill-rule="evenodd"/></mask><mask id="m" fill="#fff"><path d="m10.4911513 83.901c-10.55 21.997-15.142 44.936-4.219 68.086 9.567 20.276 24.93 33.493 49.156 34.235 23.698.728 41.359-9.678 48.1189997-31.213 5.629-17.933 10.229-38.124 7.537-56.204-4.874-32.749-15.5199997-64.671-24.2349997-98.805-32.682 23.831-59.792 49.358-76.358 83.901z" fill="#fff" fill-rule="evenodd"/></mask><mask id="n" fill="#fff"><path d="m22.7265441 5.38000039c-20.26100004 7.89100001-26.29400004 20.47700001-20.79500004 41.07300001 10.94600004 41.008 50.27600004 69.9329996 93.40500004 68.8089996 32.0189999-.833 60.7189999-12.634 89.4929999-24.8709996-18.897-35.74-64.602-74.296-101.1149999-85.29300001-10.562-3.18-21.204-5.09800039-31.826-5.09800039-9.766 0-19.516 1.62300039-29.162 5.38000039z" fill="#fff" fill-rule="evenodd"/></mask><mask id="o" fill="#fff"><path d="m0 30.699c12.409 31.608 31.936 60.544 51.111 76.168 15.754 12.837 33.598 20.637 54.328 17.945 31.514-4.09 53.326-28.694 53.323-58.701 0-31.216-24.561-59.834-56.411-64.756-5.952-.92-11.765-1.355-17.456-1.355-30.936 0-58.289 12.865-84.895 30.699z" fill="#fff" fill-rule="evenodd"/></mask><mask id="p" fill="#fff"><path d="m73.698 0c-2.7 0-5.43.097-8.187.294-28.835 2.061-50.936 15.508-61.072 42.929-2.898 7.839-4.414 15.533-4.439 22.981v.37c.048 14.595 5.84 28.23 18.192 40.127 25.096 24.174 66.932 24.598 93.056-3.053 19.478-20.614 33.541-46.155 51.027-70.937v-.002c-29.92-19.86-57.462-32.709-88.573-32.709-.002 0-.002 0-.004 0z" fill="#fff" fill-rule="evenodd"/></mask><mask id="q" fill="#fff"><path d="m21.3439226 17.747c-3.662 5.672-9.372 10.11-12.803 15.881-15.913 26.759-9.717 61.028 19.656 82.315 23.54 17.056 51.229 28.597 77.0770004 42.583 2.065-1.35 4.132-2.7 6.197-4.051 4.728-20.229 10.383-40.294 13.993-60.712 8.834-49.94-30.5240004-101.714-89.6370004-85.989-2.596-3.638-5.339-7.477-5.55-7.774-2.631 5.346-5.169 11.926-8.933 17.747z" fill="#fff" fill-rule="evenodd"/></mask><mask id="r" fill="#fff"><path d="m20.7401822 56.075c-9.798 12.086-16.39099996 28.288-19.56599996 43.585-5.94 28.625 11.12299996 46.341 40.63899996 46.083 22.99-.198 42.511-9.027 59.3239998-23.721 37.028-32.363 37.972-74.595 33.626-122.022-43.3819998 12.47-85.7999998 21.253-114.0229998 56.075z" fill="#fff" fill-rule="evenodd"/></mask><mask id="s" fill="#fff"><path d="m27.34 17.201c-20.612 18.228-26.111 42.229-27.34 75.059 1.725 9.081 4.856 24.903 7.688 40.775 1.501 8.402 5.896 12.017 14.403 9.125 21.499-7.306 44.585-12.034 63.856-23.116 14.579-8.386 27.427-23.354 35.377-38.298 12.211-22.949 1.309-58.148-18.148-72.591-7.434-5.519-17.641-8.155-28.563-8.155-16.498 0-34.624 6.017-47.273 17.201z" fill="#fff" fill-rule="evenodd"/></mask><mask id="t" fill="#fff"><path d="m5.16876443 96.554c6.67999997 21.655 20.35599997 37.79 41.15399997 47.562 33.063 15.536 68.9329996-2.491 75.6069996-37.922 4.781-25.377-4.619-46.513-22.7149996-63.805-24.434-23.344-55.843-33.107-89.033-42.389-8.96799997 32.721-14.99799997 64.179-5.01299997 96.554z" fill="#fff" fill-rule="evenodd"/></mask><mask id="u" fill="#fff"><path d="m25.4388143 35.7690003c-10.053 8.119-17.54900003 21.211-22.16800003 33.481-8.878 23.571.573 39.9849997 25.24000003 46.7109997 31.024 8.455 57.167-2.674 78.2209997-24.0799997 26.844-27.29 51.896-56.272 78.912-85.83299997-18.67-3.788-37.08-6.04800033-55.08-6.04800033-37.3409997.00200033-72.8859997 9.73600033-105.1249997 35.7690003z" fill="#fff" fill-rule="evenodd"/></mask><mask id="v" fill="#fff"><path d="m68.728 15.1410007c-23.329 17.031-45.203 35.981-68.728 54.887 29.222 23.266 60.16 38.5950003 96.43 39.6440003 41.329 1.194 78.928-24.1330003 77.542-67.0310003-.11-3.366 4.236-6.868 6.65-10.31-3.639-1.185-8.67-1.536-10.151-3.969-12.021-19.72600001-32.928-28.36400001-54.273-28.36200035-16.964 0-34.205 5.45800034-47.47 15.14100035zm111.894 17.19c.181.059.359.12.533.183.012.007-.378-.408-.378-.408-.051.075-.103.15-.155.225z" fill="#fff" fill-rule="evenodd"/></mask><mask id="w" fill="#fff"><path d="m0 5.509c24.229 27.422 47.258 53.235 69.992 79.297 19.774 22.663 43.468 36.603 75.023 33.713 31.584-2.89 45.462-24.331 32.736-52.503-4.833-10.699-11.65-21.771-20.551-29.253-32.079-26.97-67.739-36.763-104.971-36.763-17.142 0-34.62 2.077-52.229 5.509z" fill="#fff" fill-rule="evenodd"/></mask><mask id="x" fill="#fff"><path d="m78 27.925c-2.864 3.342-9.464 5.205-14.256 5.073-21.262-.575-42.498-2.13-63.744-3.33 19.899 4.649 39.855 6.49 59.846 7.812 9.88.654 12.921 5.475 14.176 14.82 5.886 43.81 43.749 69.32 86.651 55.732 25.833-8.182 49.693-22.364 75.958-34.555-20.718-29.796-45.741-52.877-67.499-63.83-12.819-6.454-25.142-9.647-36.851-9.647-20.115 0-38.414 9.425-54.281 27.925z" fill="#fff" fill-rule="evenodd"/></mask><mask id="y" fill="#fff"><path d="m49.9503023 130.157c16.439 12.9 34.868 19.698 56.3029997 17.797 13.964-1.241 22.773-7.601 25.4-21.532 5.899-31.282-5.831-56.813-28.313-77.594-28.2579997-26.118-63.3279997-39.502-101.99499967-48.828-7.307 43.055 16.03499997 104.598 48.60499997 130.157z" fill="#fff" fill-rule="evenodd"/></mask><mask id="z" fill="#fff"><path d="m72.6016197 8.748c-7 3.772-13.846 7.824-20.709 11.842-35.699 20.901-52.66000004 51.784-51.86600004 92.545.615 31.725 1.136 32.473 33.24200004 29.373 53.576-5.174 88.0440003-37.998 90.0700003-84.407-2.992-11.518-4.789-23.499-9.212-34.461-6.682-16.561-10.949-23.64-18.8940003-23.64-5.302 0-12.243 3.154-22.631 8.748z" fill="#fff" fill-rule="evenodd"/></mask><mask id="A" fill="#fff"><path d="m12.5160913 11.7760007c-33.892 59.021 4.35 126.4070003 74.978 131.5490003 32.5159997 2.365 33.2069997 1.752 34.2149997-29.58-1.494-10.277-2.099-20.7720003-4.644-30.7920003-10.427-41.047-43.1509997-61.1-78.0059997-79.46300004-4.47-2.356-8.212-3.49000066-11.473-3.49000066-6.213 0-10.675 4.12300066-15.07 11.7760007z" fill="#fff" fill-rule="evenodd"/></mask><mask id="B" fill="#fff"><path d="m0 1.332c8.738 20.91 17.479 41.821 26.483 63.365-29.319 31.449-30.679 57.221-2.285 93.158 16.486 20.867 34.496 40.574 52.385 61.465 18.531-24.137 30.921-49.84 34.132-79.086 5.053-45.998-21.599-76.878-68.607-81.342-4.17-.395-9.365-4.567-11.564-8.384-9.534-16.552-18.135-33.624-27.077-50.508z" fill="#fff" fill-rule="evenodd"/></mask><mask id="C" fill="#fff"><path d="m55.0637431 24.988c-15.475 5.861-30.531 17.524-41 30.333-18.83299998 23.04-17.97499998 54.617-2.055 69.047 16.211 14.694 44.886 13.516 69.092-4.818 39.0959999-29.617 51.9369999-72.873 63.6489999-119.55-32.055 8.623-61.8049999 14.431-89.6859999 24.988z" fill="#fff" fill-rule="evenodd"/></mask><mask id="D" fill="#fff"><path d="m129.931 7.468c-22.162 17.656-42.419 37.649-63.037 57.104-8.77 8.274-15.587 18.63-24.735 26.411-12.561 10.681-28.168 10.411-42.069 1.312 2.043 3.776 3.249 8.495 6.318 11.107 19.463 16.557 42.244 26.046 67.959 27.89 78.259 5.607 102.044-63.161 84.254-114.404-3.929-11.32-7.874-16.888-13.736-16.888-3.932 0-8.727 2.508-14.954 7.468zm-129.931 84.768c.03.019.06.039.09.059-.02-.038-.041-.075-.061-.112z" fill="#fff" fill-rule="evenodd"/></mask><mask id="E" fill="#fff"><path d="m.25117079 79.608c-1.174 23.772 1.29 46.08 17.71300001 64.612 12.326 13.912 26.239 27.381 47.094 24.036 14.141-2.268 26.188-26.024 26.863-47.902 1.361-44.06-42.917-103.602-91.37800001-120.354 0 27.695.989 53.707-.292 79.608z" fill="#fff" fill-rule="evenodd"/></mask><mask id="F" fill="#fff"><path d="m53.995 2.332c-33.181 9.427-53.979 39.626-53.995 85.315 1.399 7.125 3.284 21.165 7.355 34.562 1.136 3.735 10.191 8.955 13.142 7.736 18.986-7.85 38.811-15.181 55.455-26.718 25.163-17.439 33.158-48.809 23.707-77.22-5.816-17.485-15.769-26.007-30.703-26.007-4.523 0-9.502.782-14.961 2.332z" fill="#fff" fill-rule="evenodd"/></mask><mask id="G" fill="#fff"><path d="m0 8.64100017c15.216 16.54700003 29.091 32.24900003 43.686 47.27600003 8.77 9.028 17.777 18.297 28.23 25.192 23.912 15.771 49.767 17.568 75.746 4.784 17.748-8.733 22.411-19.569 11.715-35.425-9.08-13.46-20.961-27.322-35.018-34.904-20.802-11.22200003-42.345-15.56500003-64.34-15.5640002-19.715 0-39.794 3.48900017-60.019 8.64100017z" fill="#fff" fill-rule="evenodd"/></mask><mask id="H" fill="#fff"><path d="m63.4428639 4.77c-44.242 17.97-71.35500001 72.625-61.37900001 125.031 29.73500001-4.825 57.84300001-13.692 81.48600001-32.615 19.5820001-15.667 29.9390001-36.087 28.9370001-61.583-.913-23.287-10.853-35.603-28.0030001-35.603-6.123 0-13.164 1.57-21.041 4.77z" fill="#fff" fill-rule="evenodd"/></mask><mask id="I" fill="#fff"><path d="m16.5502185 8.31900037c-15.97099997 6.76600003-19.44999997 15.15900003-14.40299997 31.29700003 8.08499997 25.842 36.16799997 47.412 63.67999997 50.283 37.7740005 3.942 66.2510005-14.141 97.2460005-38.805-27.154-15.734-51.662-32.319-78.2370005-44.58800003-9.74-4.496-19.942-6.507-30.254-6.50600037-12.74 0-25.646 3.07100037-38.032 8.31900037z" fill="#fff" fill-rule="evenodd"/></mask><mask id="J" fill="#fff"><path d="m106.181.347c-41.122 3.433-70.437 29.46-106.181 56.567 25.06 11.358 45.219 23.731 67.185 29.75 40.908 11.207 85.067-14.757 94.15-52.076 4.193-17.22-.089-26.558-17.422-30.902-9.382-2.353-19.405-3.686-29.226-3.686-2.859 0-5.702.113-8.506.347z" fill="#fff" fill-rule="evenodd"/></mask><mask id="K" fill="#fff"><path d="m5.14423383 16.0370014c-10.722 11.189-3.61 44.406 11.43599997 59.854 24.754 25.4049996 84.7860002 33.6309996 118.8920002 14.163-6.616-13.843-12.351-28.417-20.235-41.77-13.785-23.345-33.2740002-40.73399995-60.9110002-46.77099995-4.564-.997-8.988-1.51300145-13.274-1.51300145-13.334 0-25.321 4.99400145-35.90799997 16.0370014z" fill="#fff" fill-rule="evenodd"/></mask><mask id="L" fill="#fff"><path d="m9.99784741 26.063c-10.486 14.704-13.283 31.019-5.707 47.409 7.31699999 15.834 22.15199999 21.312 38.99699999 22.848 18.477 1.684 35.751-2.428 48.627-15.071 17.0759996-16.767 32.1029996-35.541 51.0279996-56.853-21.374-8.444-36.605-15.913-52.6889996-20.515-9.137-2.615-17.994-3.881-26.38-3.881-22.663.001-41.884 9.244-53.87599999 26.063z" fill="#fff" fill-rule="evenodd"/></mask><mask id="M" fill="#fff"><path d="m38.445705 28.863c-13.548 11.707-25.688 26.489-33.93600001 42.201-9.852 18.771-2.522 42.656 11.93800001 54.3 13.222 10.645 35.297 11.753 52.606 1.978 17.498-9.881 28.591-24.415 31.809-44.408 4.486-27.906-5.82-53.191-13.966-82.934-18.054 10.45-35.235 17.445-48.451 28.863z" fill="#fff" fill-rule="evenodd"/></mask><mask id="N" fill="#fff"><path d="m115.672 27.334c-18.612 7.397-38.238 12.759-57.846 17.207-18.474 4.187-37.502 6.021-57.826 9.128 32.923 7.92 101.805 11.712 168.791 11.733h.91c72.746-.015 143.066-4.478 162.502-12.933-58.409-5.679-114.962-18.086-162.479-52.469-19.245 9.895-36.01 20.163-54.052 27.334z" fill="#fff" fill-rule="evenodd"/></mask><mask id="O" fill="#fff"><path d="m0 26.006c16.444 26.784 32.576 51.41 60.608 64.832 28.629 13.704 63.526 2.466 73.47-22.764 10.105-25.625-7.739-55.961-38.484-65.318-2.519-.767-5.182-1.097-7.794-1.524-5.125-.839-10.118-1.232-15.002-1.232-26.303 0-49.427 11.401-72.798 26.006z" fill="#fff" fill-rule="evenodd"/></mask><mask id="P" fill="#fff"><path d="m0 1.399c11.925 22.628 24.117 45.674 36.231 68.758 17.437 33.22 45.446 48.558 83.652 45.162 10.919-.972 21.731-3.146 32.588-4.794-11.906-.92-12.739-10.202-14.898-18.823-2.522-10.061-4.077-20.763-8.789-29.816-17.953-34.504-71.782-61.888-113.435-61.886-5.35 0-10.503.452-15.349 1.399zm152.471 109.126c.119.01.239.018.36.026.064-.041.093-.094.093-.094-.151.023-.302.046-.453.068z" fill="#fff" fill-rule="evenodd"/></mask><mask id="Q" fill="#fff"><path d="m77.808.01c-20.545.392-36.993 9.354-49.207 25.147-17.133 22.157-24.203 48.084-28.601 76.303 28.022 6.647 54.405 6.037 80.119-5.151 19.095-8.312 31.42-22.792 38.075-41.996 9.757-28.171-9.326-54.313-39.39-54.313-.33 0-.663.003-.996.01z" fill="#fff" fill-rule="evenodd"/></mask><mask id="R" fill="#fff"><path d="m60.5917033 30.835c-44.627 16.261-66.27900003 51.356-59.30800003 99.11 39.69700003 4.275 72.79900003-5.27 92.58500003-42.631 9.3019997-17.564 19.0829997-34.919 27.5189997-52.88 5.234-11.138 8.344-23.234 12.246-34.434-25.608 10.901-48.8839997 22.033-73.0419997 30.835z" fill="#fff" fill-rule="evenodd"/></mask><mask id="S" fill="#fff"><path d="m45.0539249 164.935c41.535-44.732 43.158-108.745 4.183-164.935-63.75 39.065-66.07 130.518-4.183 164.935z" fill="#fff" fill-rule="evenodd"/></mask><mask id="T" fill="#fff"><path d="m27.2542618 19.3240003c-10.046 6.351-17.45299996 18.055-23.59499996 28.681-7.246 12.546-3.524 23.672 9.33299996 32.262 24.357 16.277 54.869 13.975 78.708-8.917 20.8450002-20.025 40.0270002-41.72 61.5580002-64.37700004-18.994-4.133-37.587-6.974-55.6840002-6.97300026-24.425 0-47.946 5.17400026-70.32 19.3240003z" fill="#fff" fill-rule="evenodd"/></mask><mask id="U" fill="#fff"><path d="m0 28.328c18.864 13.064 36.664 27.227 56.187 38.513 35.364 20.442 77.892 15.335 110.346-11.823-23.88-36.483-54.788-55.02-89.179-55.018-24.451.001-50.665 9.372-77.354 28.328z" fill="#fff" fill-rule="evenodd"/></mask><mask id="V" fill="#fff"><path d="m33.7411376.736c-22.036 5.512-37.17500002 32.726-33.06800002 59.237 5.707 36.848 28.38900002 62.687 57.35800002 84.131 7.83-27.004 16.036-52.761 22.658-78.901 6.133-24.205-5.07-50.285-26.355-61.914-3.906-2.136-9.177-3.289-14.144-3.289-2.265 0-4.468.24-6.449.736z" fill="#fff" fill-rule="evenodd"/></mask><mask id="W" fill="#fff"><path d="m17.1552652 14.5860002c-8.84300003 12.658-15.50800003 28.878-16.87100003 44.044-3.066 34.121 19.22400003 59.1149998 40.12000003 90.5009998 14.125-27.632 28.854-50.6689998 37.781-75.7039998 7.349-20.599 3.188-42.511-13.353-59.897-8.431-8.86400004-16.889-13.5300002-24.96-13.5300002-8.102 0-15.815 4.70400016-22.717 14.5860002z" fill="#fff" fill-rule="evenodd"/></mask><mask id="X" fill="#fff"><path d="m2.3232143 14.188c-4.234 20.583-3.29 40.486 7.954 58.948 18.948 31.116 50.442 42.543 82.897 52.362 1.972-1.275 3.943-2.55 5.915-3.826-9.548-29.457-17.28-59.652-29.286-88.113-7.867-18.658-24.421-31.141-46.775-33.365-1.283-.128-2.509-.194-3.68-.194-9.194 0-14.943 4.063-17.025 14.188z" fill="#fff" fill-rule="evenodd"/></mask><mask id="Y" fill="#fff"><path d="m2.0448954 84.668c3.182 15.548 11.692 31.703 22.335 43.727 14.437 16.312 34.627 12.106 45.346-6.571 12.291-21.419 12.79-44.202-1.213-63.953-14.041-19.804-32.137-36.841-50.941-57.871-15.191 30.739-21.061 57.62-15.527 84.668z" fill="#fff" fill-rule="evenodd"/></mask><mask id="Z" fill="#fff"><path d="m12.4970154 9.284c-11.02899999 9.338-14.34499999 21.789-11.56399999 35.463 4.369 21.481 24.31199999 40.199 46.54399999 41.047 22.011.839 44.137-1.237 69.2849996-2.145-11.564-36.019-27.0749996-64.716-60.8189996-79.451-6.19-2.703-12.532-4.198-18.782-4.198-8.616 0-17.054 2.843-24.664 9.284z" fill="#fff" fill-rule="evenodd"/></mask><mask id="aa" fill="#fff"><path d="m.9124106 56.332c-3.445 21.745 2.794 41.484 19.934 56.706 23.515 20.885 53.729 12.621 59.083-17.581 2.283-12.875-.128-28.166-5.303-40.357-10.645-25.062-32.868-40.086-60.083-55.1-5.028 20.288-10.741 38.095-13.631 56.332z" fill="#fff" fill-rule="evenodd"/></mask><mask id="ab" fill="#fff"><path d="m20.2660194.013c-12.10400004.212-16.88300004 5.543-19.12900004 16.188-5.086 24.098 7.076 50.037 32.76500004 63.874 23.105 12.441 47.258 23.017 72.0909996 34.966-3.264-31.342-10.8889996-60.324-29.2239996-85.456-13.359-18.304-31.017-29.585-55.132-29.585-.455 0-.912.004-1.371.013z" fill="#fff" fill-rule="evenodd"/></mask><mask id="ac" fill="#fff"><path d="m31.2011146 147.055c41.771-62.413 50.826-69.679 24.51-147.055-62.96 37.13-74.562 106.749-24.51 147.055z" fill="#fff" fill-rule="evenodd"/></mask><mask id="ad" fill="#fff"><path d="m.34067025 66.535c-3.248 30.085 17.04100005 50.156 47.53400005 53.332 4.99.518 9.618 4.385 11.087 5.095 14.976-18.969 31.018-39.644 18.737-66.076-11.51-24.767-33.745-39.468-59.526-58.886-6.885 24.717-15.53900005 45.295-17.83200005 66.535z" fill="#fff" fill-rule="evenodd"/></mask><mask id="ae" fill="#fff"><path d="m19.0663907 40.542c-8.511 10.745-14.54800004 24.337-18.19000004 37.589-4.282 15.561 7.806 36.983 21.50500004 44.066 11.065 5.723 30.032 1.684 41.282-8.85 12.934-12.113 18.676-27.574 15.517-44.221-4.115-21.721-11.054-42.926-18.055-69.126-16.804 15.862-31.209 26.847-42.059 40.542z" fill="#fff" fill-rule="evenodd"/></mask><mask id="af" fill="#fff"><path d="m-0 63.896c37.093 23.995 86.805 7.771 128.794-42.668-17.43-14.424-36.222-21.229-54.082-21.228-32.819.002-62.485 22.984-74.712 63.896z" fill="#fff" fill-rule="evenodd"/></mask><mask id="ag" fill="#fff"><path d="m1.48782078 58.147c-2.948 24.054-.605 48.731-.605 72.214 64.19900002-24.89 83.84100002-74.862 50.69200002-130.361-26.37 11.465-46.55300002 29.328-50.08700002 58.147z" fill="#fff" fill-rule="evenodd"/></mask><mask id="ah" fill="#fff"><path d="m4.47816966 14.123c-8.098 21.152-5.22 41.76 8.69000004 59.14 14.659 18.316 31.741 34.763 50.554 55.035 8.491-29.627 12.755-55.767 6.142-82.133-5.063-20.188-18.276-34.967-38.424-42.92-5.326-2.101-9.489-3.245-12.891-3.245-6.565 0-10.29500004 4.261-14.07100004 14.123z" fill="#fff" fill-rule="evenodd"/></mask><mask id="ai" fill="#fff"><path d="m73.616.271c-24.46 2.277-42.031 15.991-51.969 36.797-9.145 19.142-14.579 39.989-21.647 60.086 1.492 1.555 2.983 3.109 4.475 4.665 14.771-5.127 30.31-8.771 44.15-15.69 27.317-13.661 44.451-35.309 45.811-66.613.617-14.135-3.242-19.516-15.534-19.516-1.613 0-3.373.093-5.286.271z" fill="#fff" fill-rule="evenodd"/></mask><mask id="aj" fill="#fff"><path d="m11.9404689 128.411c6.516-4.765 13.103-7.931 17.338-12.995 11.237-13.437 27.321-26.454 30.72-41.914 5.198-23.646 1.363-49.202 1.363-73.502-59.66900005 25.028-75.109 77.874-49.421 128.411z" fill="#fff" fill-rule="evenodd"/></mask><mask id="ak" fill="#fff"><path d="m32.775 2.012c-10.195 2.773-20.548 4.997-32.775 7.937 10.405 29.017 25.387 50.76 56.431 56.216 15.299 2.686 28.361-1.819 36.689-15.916 7.541-12.762-1.152-21.771-8.079-30.283-10.279-12.63-22.827-19.967-37.993-19.966-4.521 0-9.278.653-14.273 2.012z" fill="#fff" fill-rule="evenodd"/></mask><mask id="al" fill="#fff"><path d="m10.9352854 3.666c-10.85400001 7.919-14.30700001 27.026-7.26500001 41.701 1.795 3.738 3.818 7.815 6.88500001 10.447 12.242 10.513 24.936 20.518 38.621 31.65 19.33-32.614 18.555-55.924.014-74.218-8.788-8.669-18.319-13.246-26.654-13.246-4.267 0-8.221 1.2-11.601 3.666z" fill="#fff" fill-rule="evenodd"/></mask><mask id="am" fill="#fff"><path d="m28.5492868.007c-14.899.396-28.88899996 17.15-28.54299996 34.187.297 14.678 17.91999996 38.614 28.33499996 38.4855193 9.49-.1165193 26.969-27.4975193 26.594-41.6545193-.454-17.039-12.168-31.026-25.851-31.025-.178 0-.357.002-.535.007z" fill="#fff" fill-rule="evenodd"/></mask><mask id="an" fill="#fff"><path d="m29.6509702 93.171c23.566-48.14 17.738-77.331-17.434-93.171-26.009 36.251-5.86399997 64.43 17.434 93.171z" fill="#fff" fill-rule="evenodd"/></mask><mask id="ao" fill="#fff"><path d="m10.2867503 66.883c-13.30499996 24.042-13.63799996 51.621-1.37899996 70.856 22.01399996-43.905 43.62099996-88.607 12.57799996-137.739 6.142 30.302 5.009 37.593-11.199 66.883z" fill="#fff" fill-rule="evenodd"/></mask><mask id="ap" fill="#fff"><path d="m.01703396 38.329c-.333 10.616 4.209 13.805 14.27800004 12.973 25.663-2.117 40.11-20.313 38.58-50.179-5.079-.749-9.775-1.123-14.104-1.123-25.372.002-37.95300004 12.859-38.75400004 38.329z" fill="#fff" fill-rule="evenodd"/></mask><mask id="aq" fill="#fff"><path d="m36.8427307 51.223c3.591-36.573-3.681-47.007-34.79200002-51.223-6.856 30.183 3.166 45.282 34.79200002 51.223z" fill="#fff" fill-rule="evenodd"/></mask><mask id="ar" fill="#fff"><path d="m4.59207436 48.216c31.25100004-11.085 39.30100004-23.351 31.59300004-48.128-.924-.059-1.83-.088-2.726-.088-27.23500004.002-41.36500004 27.005-28.86700004 48.216z" fill="#fff" fill-rule="evenodd"/></mask><mask id="as" fill="#fff"><path d="m6.23639796.732c-8.86 7.566-8.057 19.81.995 29.02 6.18700004 6.298 13.30800004 11.713 19.88500004 17.411 11.212-8.581 14.048-28.851 3.726-37.687-5.317-4.547-16.291-9.476-21.87100004-9.476-1.196 0-2.144.227-2.735.732z" fill="#fff" fill-rule="evenodd"/></mask><mask id="at" fill="#fff"><path d="m21.265 1.973c-13.071 5.566-20.055 14.534-21.265 34.078 1.815 1.935 6.117 10.589 10.991 10.912 11.775.785 28.23-23.699 26.473-36.308-.991-7.107-3.493-10.655-8.418-10.655-2.12 0-4.69.658-7.781 1.973z" fill="#fff" fill-rule="evenodd"/></mask><mask id="au" fill="#fff"><path d="m2.45350688 8.205c-6.91 18.495.753 32.796 23.27900002 41.469 10.747-21.472 8.405-36.808-6.693-46.4-3.254-2.069-6.024-3.274-8.415-3.274-3.38200002 0-6.00700002 2.413-8.17100002 8.205z" fill="#fff" fill-rule="evenodd"/></mask><mask id="av" fill="#fff"><path d="m.01133235 27.368c-.30400001 8.988 5.576 18.172 9.49 29.649 19.07299995-18.604 24.51399995-35.636 15.82699995-57.017-12.847 5.666-24.83399995 12.882-25.31699995 27.368z" fill="#fff" fill-rule="evenodd"/></mask><mask id="aw" fill="#fff"><path d="m16.877 32.285c1.485 2.515 7.057 5.355 8.875 4.443 3.063-1.536 5.774-5.685 6.626-9.203 3.661-15.175-6.485-24.46-32.378-27.525 6.1 11.895 11.013 22.358 16.877 32.285z" fill="#fff" fill-rule="evenodd"/></mask><mask id="ax" fill="#fff"><path d="m24.830586 31.75c4.92-20.427.336-26.388-24.39800005-31.75-2.164 23.228 3.46 30.547 24.39800005 31.75z" fill="#fff" fill-rule="evenodd"/></mask><mask id="ay" fill="#fff"><path d="m22.2438731 31.778c3.709-21.805-.705-28.021-21.71999998-31.778-1.776 21.89-.071 24.501 21.71999998 31.778z" fill="#fff" fill-rule="evenodd"/></mask><mask id="az" fill="#fff"><path d="m5.05065313 116.299c13.54199997-9.32 26.97799997-18.416 40.22899997-27.764 4.727-3.333 9.151-7.124 13.478-10.963 24.504-21.745 26.812-57.811 1.594-77.572-46.851 14.327-71.695 66.393-55.30099997 116.299zm33.43099997 67.046c-14.214 5.849-17.447 19.773-18.798 33.858-2.051 21.45 5.496 39.622 17.69 56.982 16.714 23.797 32.372 48.31 49.364 73.841 17.9169999-20.263 30.0449999-44.786 31.8949999-73.25 2.234-34.379-9.065-63.755-37.8669999-85.02-8.258-6.097-17.515-9.49-26.953-9.49-5.101 0-10.252.99-15.331 3.079z" fill="#fff" fill-rule="evenodd"/></mask><mask id="aA" fill="#fff"><path d="m19.1332738 3.07900022c-14.21500003 5.845-17.44700003 19.77299998-18.79800003 33.85399998-2.052 21.454 5.496 39.622 17.69000003 56.982 16.714 23.7999998 32.372 48.3129998 49.364 73.8439998 17.917-20.266 30.048-44.789 31.894-73.2499998 2.2340002-34.379-9.064-63.754-37.867-85.01999998-8.258-6.097-17.512-9.48900022-26.951-9.48900022-5.099 0-10.254.99000022-15.332 3.07900022z" fill="#fff" fill-rule="evenodd"/></mask><mask id="aB" fill="#fff"><path d="m5.05065313 116.299c13.54199997-9.32 26.97799997-18.416 40.22899997-27.764 4.727-3.333 9.151-7.124 13.478-10.963 24.504-21.745 26.812-57.811 1.594-77.572-46.851 14.327-71.695 66.393-55.30099997 116.299z" fill="#fff" fill-rule="evenodd"/></mask><mask id="aC" fill="#fff"><path d="m8.10674279 55.084c28.35800001-6.388 35.30200001-37.705 16.73800001-55.084-26.85600001 19.448-31.12100001 33.487-16.73800001 55.084z" fill="#fff" fill-rule="evenodd"/></mask><g fill="none" fill-rule="evenodd"><path d="m-1.001 1774.2h1212.421v-1775.2h-1212.421z" fill="#521c38" mask="url(#a)" transform="translate(775.576 172.301)"/><path d="m608.0653 604.813c33.722-14.552 69.16-14.565 104.991-12.551 6.437.361 13.068-2.696 19.611-4.175-4.424-5.764-7.583-13.884-13.466-16.918-50.548-26.046-104.824-35.676-161.041-27.513-39.368 5.72-77.907 16.742-117.044 24.25-27.779 5.33-54.043 1.771-76.301-17.939-27.689-24.526-60.534-21.937-93.811-16.117-2.567.449-5.153.773-7.906.044 25.839-14.835 52.901-22.308 82.641-12.197 7.026 2.387 14.474 4.57 20.513 8.597 38.824 25.895 80.052 26.502 124.016 15.228 32.368-8.302 65.764-12.746 98.705-18.9 2.618-.49 5.624-.257 7.81-1.47 7.88-4.375 15.488-9.228 23.201-13.899-6.107-5.987-11.336-13.356-18.474-17.713-24.075-14.697-48.643-28.549-63.424-53.693-1.713-2.912-2.935-6.1-5.281-11.057 13.779 12.134 25.711 22.638 39.409 34.7 4.283-10.661 7.307-18.181 9.596-23.876 0 7.665-3.153 18.655.845 25.792 4.407 7.871 14.717 13.503 23.605 17.847 29.062 14.201 58.319 28.104 88.091 40.794 70.466 30.032 118.693 80.386 144.04 151.243 12.684 35.453 23.953 71.462 34.186 107.679 14.383 50.92 39.822 95.417 74.969 135.186 19.54 22.11 39.054 44.478 56.104 68.428 47.354 66.535 53.032 140.068 31.495 216.126-19.601 69.229-25.922 139.662-27.372 211.043-1.405 69.047-2.446 138.195-7.307 207.05-4.885 69.157-23.359 135.353-65.044 192.765-63.93 88.045-153.709 123.825-261.673 120.401-91.347-2.899-172.051-36.465-247.296-84.533-24.763-15.818-47.997-33.945-71.928-51.017.832-1.332 1.664-2.667 2.497-3.999 8.264 4.228 16.489 8.531 24.801 12.671 72.921 36.327 148.626 62.495 231.69 63.896 154.966 2.61 260.927-73.561 304.254-219.674 19.092-64.383 23.201-130.698 25.666-197.16 2.519-67.954 3.178-135.99 19.418-202.741 8.773-36.041 18.468-72.172 23.061-108.829 14.493-115.698-76.573-207.826-195.541-200.523-45.676 2.805-85.659 19.927-122.892 44.452-19.463 12.819-38.232 26.652-57.356 39.967-29.488 20.53-54.2 45.43-73.298 75.713-26.687 42.32-60.662 77.12-102.68 106.015-46.887 32.243-59.661 81.888-58.499 135.741.103 4.709.8 9.408.8 14.11.01 15.19 4.872 22.522 23.074 23.097 32.458 1.027 62.269 37.809 63.267 74.208 1.069 39.084-15.667 73.02-33.239 109.554-40.187-20.542-81.895-37.379-103.723-79.469-20.635-39.779-3.806-84.056 37.825-102.073 3.338-1.445 6.654-2.94 10.889-4.815-1.818-12.511-5.397-24.884-5.032-37.143.788-26.476 1.441-53.273 6.162-79.237 5.268-28.989 22.849-51.124 49.783-65.803 47.004-25.621 79.565-64.854 108.841-108.292 15.613-23.165 37.476-42.36 57.138-62.771 8.744-9.078 19.751-16.067 28.438-25.185 13.804-14.496 8.818-28.634-11.26-32.853-9.336-1.963-19.258-1.385-28.495-3.631-29.856-7.259-60.634-12.517-89.062-23.514-113.466-43.893-203.632-13.328-264.352 91.396-28.693 49.494-41.739 103.807-51.44 159.061-11.814 67.273-15.002 134.885-10.419 203.231 11.548 172.119 165.244 328.039 337.878 345.774 170.435 17.508 352.203-80.161 392.771-293.164 6.446-33.842 8.988-68.4 13.292-102.631 1.092-8.692 2.03-17.399 4.187-25.968 2.688 93.718 3.319 187.297-24.127 278.363-42.328 140.447-173.12 231.121-322.075 221.308-161.998-10.673-287.934-88.085-380.555-214.724-112.685-154.074-133.861-323.13-61.452-499.907 36.273-88.559 97.565-157.933 186.876-200.316 37.646-17.866 77.152-23.099 118.281-13.915 4.66 1.04 9.454 1.492 14.162 2.359 12.8 2.359 17.588-3.194 16.993-15.454-.544-11.258-.116-22.559 1.133-34.131 1.251 4.878 2.544 9.747 3.748 14.634 12.396 50.346 56.693 83.201 109.158 80.955 24.2-1.036 30.893-7.714 36.66-30.591 6.363-25.241 13.901-50.279 22.603-74.833 3.726-10.516 11.686-19.584 20.798-27.782-3.722 8.097-8.933 15.868-10.876 24.359-5.434 23.752-12.37 47.684-13.391 71.767-1.184 28 15.897 38.189 43.183 29.925 8.639-2.616 17.216-5.619 25.474-9.21 39.106-17.002 79.674-25.621 122.71-23.909 26.14 1.042 37.752-9.694 34.551-35.049-8.171-64.69-24.309-127.496-58.223-184.362-9.026-15.131-22.254-27.846-33.553-41.67-1.545 1.109-3.088 2.221-4.634 3.33 7.918 3.753 15.837 7.507 23.755 11.257.868-.71 1.735-1.419 2.602-2.129-5.434-5.456-10.354-11.547-16.384-16.271-43.295-33.892-92.844-38.833-145.354-29.649-5.739 1.002-11.571 1.489-17.358 2.215z" fill="#521c38"/><path d="m-31.269 1509.602h1006.331v-1510.602h-1006.331z" fill="#521c38" mask="url(#b)" transform="translate(82.62 428.79)"/><path d="m-1 269.689h865.226v-270.689h-865.226z" fill="#d4666a" mask="url(#c)" transform="translate(593.799 1779.311)"/><path d="m-1 163.787h266.435v-170.274h-266.435z" fill="#fbbd8a" mask="url(#d)" transform="translate(1535.157 336.48)"/><path d="m-1 172.604h268.486v-183.323h-268.486z" fill="#91586e" mask="url(#e)" transform="translate(249.118 336.145)"/><path d="m-.999 164.343h199.045v-172.784h-199.045z" fill="#d4666a" mask="url(#f)" transform="translate(65.488 474.206)"/><path d="m-5.969 161.341h193.792v-166.322h-193.792z" fill="#004e4c" mask="url(#g)" transform="translate(1792.18 473.943)"/><path d="m-3.368 209.642h144.416v-210.643h-144.416z" fill="#91586e" mask="url(#h)" transform="translate(674.8 269.12)"/><path d="m-4.702 229.913h124.277v-230.913h-124.277z" fill="#fbbd8a" mask="url(#i)" transform="translate(1714.62 992.707)"/><path d="m-2.123 228.515h112.752v-229.515h-112.752z" fill="#ef6a9f" mask="url(#j)" transform="translate(226.016 989.856)"/><path d="m-1 134.451h176.868v-139.366h-176.868z" fill="#fbbd8a" mask="url(#k)" transform="translate(1472.88 1227.778)"/><path d="m-3.953 186.097h123.695v-187.097h-123.695z" fill="#fbbd8a" mask="url(#l)" transform="translate(1721.28 581.238)"/><path d="m-5.652 187.95h120.428v-188.95h-120.428z" fill="#004e4c" mask="url(#m)" transform="translate(211.502 579.115)"/><path d="m-4.567 117.386h190.397v-120.849h-190.397z" fill="#91586e" mask="url(#n)" transform="translate(1420.768 895.908)"/><path d="m-1 128.504h160.765v-134.07h-160.765z" fill="#d4666a" mask="url(#o)" transform="translate(0 939.615)"/><path d="m-1 125.622h164.275v-126.622h-164.275z" fill="#ef6a9f" mask="url(#p)" transform="translate(1885.725 940.722)"/><path d="m-8.373 159.526h143.671v-168.477h-143.671z" fill="#fbbd8a" mask="url(#q)" transform="translate(672.006 1267.48)"/><path d="m-5.766 147.001h145.876v-148.001h-145.876z" fill="#fbbd8a" mask="url(#r)" transform="translate(842.175)"/><path d="m-1 146.053h135.535v-152.753h-135.535z" fill="#004e4c" mask="url(#s)" transform="translate(1235.559 1264.979)"/><path d="m-5.817 160.652h133.528v-161.652h-133.528z" fill="#fbbd8a" mask="url(#t)" transform="translate(383.593 681.639)"/><path d="m-6.607 125.416h193.251v-132.012h-193.251z" fill="#fbbd8a" mask="url(#u)" transform="translate(1486.8 233.971)"/><path d="m-1 111.866h183.167v-119.907h-183.167z" fill="#fbbd8a" mask="url(#v)" transform="translate(426.897 572.291)"/><path d="m-1 122.409h192.477v-128.787h-192.477z" fill="#004e4c" mask="url(#w)" transform="translate(377.724 234.191)"/><path d="m-1 122.62h238.631v-131.516h-238.631z" fill="#004e4c" mask="url(#x)" transform="translate(1380.975 572.088)"/><path d="m-6.962 150.855h145.514v-151.855h-145.514z" fill="#91586e" mask="url(#y)" transform="translate(1119.404 .683)"/><path d="m-1.767 146.608h126.105v-152.835h-126.105z" fill="#004e4c" mask="url(#z)" transform="translate(31.47 703.344)"/><path d="m-22.376 146.69h145.085v-151.044h-145.085z" fill="#fbbd8a" mask="url(#A)" transform="translate(1892.42 702.798)"/><path d="m-5.196 220.32h121.964v-221.32h-121.964z" fill="#fbbd8a" mask="url(#B)" transform="translate(751.588 1061.182)"/><path d="m-5.769 140.062h151.519v-141.062h-151.519z" fill="#ef6a9f" mask="url(#C)" transform="translate(818.826 435.393)"/><path d="m-1 137.899h178.411v-143.785h-178.411z" fill="#d4666a" mask="url(#D)" transform="translate(1512.572 683.085)"/><path d="m-1.923 172.601h96.205v-173.601h-96.205z" fill="#ef6a9f" mask="url(#E)" transform="translate(1014.457 85.823)"/><path d="m-1 132.164h111.11v-137.503h-111.11z" fill="#004e4c" mask="url(#F)" transform="translate(240.633 1223.541)"/><path d="m-1 99.677h172.073v-106.394h-172.073z" fill="#fbbd8a" mask="url(#G)" transform="translate(583.737 158.736)"/><path d="m-8.912 130.801h123.401v-139.196h-123.401z" fill="#91586e" mask="url(#H)" transform="translate(1230.946 1119.651)"/><path d="m-3.9 94.841h167.973v-99.386h-167.973z" fill="#ef6a9f" mask="url(#I)" transform="translate(1781.623 850.626)"/><path d="m-1 98.871h167.528v-100.561h-167.528z" fill="#ef6a9f" mask="url(#J)" transform="translate(101.467 851.323)"/><path d="m-6.578 110.522h143.05v-114.108h-143.05z" fill="#004e4c" mask="url(#K)" transform="translate(1224.86 378.809)"/><path d="m-4.285 99.004h148.228v-105.807h-148.228z" fill="#91586e" mask="url(#L)" transform="translate(1281.101 56.116)"/><path d="m-6.342 138.117h112.692v-139.117h-112.692z" fill="#004e4c" mask="url(#M)" transform="translate(685.757 729.128)"/><path d="m-1 66.402h334.203v-67.402h-334.203z" fill="#d4666a" mask="url(#N)" transform="translate(855.969 1982.598)"/><path d="m-1 105.542h146.183v-110.665h-146.183z" fill="#d4666a" mask="url(#O)" transform="translate(671.681 56.395)"/><path d="m-1 119.715h154.924v-127.634h-154.924z" fill="#d4666a" mask="url(#P)" transform="translate(1359.678 664.809)"/><path d="m-1 109.107h130.058v-110.682h-130.058z" fill="#fbbd8a" mask="url(#Q)" transform="translate(377.255 1049.571)"/><path d="m-6.687 135.22h141.321v-136.221h-141.321z" fill="#004e4c" mask="url(#R)" transform="translate(520.55 746.984)"/><path d="m-17.834 165.935h107.046v-166.935h-107.046z" fill="#f06c9f" mask="url(#S)" transform="translate(898.296 627.153)"/><path d="m-4.587 97.544h158.845v-103.855h-158.845z" fill="#ef6a9f" mask="url(#T)" transform="translate(1310.39 160.798)"/><path d="m-1 88.283h168.533v-106.573h-168.533z" fill="#fbbd8a" mask="url(#U)" transform="translate(341.077 946.858)"/><path d="m-4.434 145.103h92.255v-146.951h-92.255z" fill="#004e4c" mask="url(#V)" transform="translate(463.766 1222.796)"/><path d="m-3.782 150.131h90.316v-156.274h-90.316z" fill="#91586e" mask="url(#W)" transform="translate(658.5 1026.826)"/><path d="m-2.911 126.498h103v-128.434h-103z" fill="#004e4c" mask="url(#X)" transform="translate(1397.622 1032.068)"/><path d="m-4.489 145.707h88.005v-146.707h-88.005z" fill="#f06c9f" mask="url(#Y)" transform="translate(1246.944 674.647)"/><path d="m-2.848 87.633h120.61v-90.864h-120.61z" fill="#ef6a9f" mask="url(#Z)" transform="translate(1132.883 454.941)"/><path d="m-3.532 134.923h86.744v-135.923h-86.744z" fill="#d4666a" mask="url(#aa)" transform="translate(978.299 498.152)"/><path d="m-4.949 116.041h111.943v-117.463h-111.943z" fill="#91586e" mask="url(#ab)" transform="translate(778.64 984.544)"/><path d="m-19.851 148.055h102.878v-149.056h-102.878z" fill="#004e4c" mask="url(#ac)" transform="translate(561.876 1179.871)"/><path d="m-3.907 125.962h94.887v-126.962h-94.887z" fill="#f06c9f" mask="url(#ad)" transform="translate(1395.67 296.468)"/><path d="m-4.406 128.92h87.746v-129.92h-87.746z" fill="#004e4c" mask="url(#ae)" transform="translate(567.025 291.637)"/><path d="m-1 88.891h130.794v-109.594h-130.794z" fill="#004e4c" mask="url(#af)" transform="translate(1188.519 286.178)"/><path d="m-2.46 131.361h88.184v-132.361h-88.184z" fill="#004e4c" mask="url(#ag)" transform="translate(1525.84 1027.339)"/><path d="m-4.62 129.298h82.097v-133.209h-82.097z" fill="#004e4c" mask="url(#ah)" transform="translate(975.162 239.349)"/><path d="m-1 102.819h97.134v-105.081h-97.134z" fill="#d4666a" mask="url(#ai)" transform="translate(1252.622 984.634)"/><path d="m-14.748 129.411h80.944v-130.411h-80.944z" fill="#004e4c" mask="url(#aj)" transform="translate(897.928 165.127)"/><path d="m-1 69.851h102.661v-74.757h-102.661z" fill="#f06c9f" mask="url(#ak)" transform="translate(643.731 614.783)"/><path d="m-4.372 88.464h73.877v-93.079h-73.877z" fill="#f06c9f" mask="url(#al)" transform="translate(593.617 1371.02)"/><path d="m-1.34 73.808h57.65v-75.172h-57.65z" fill="#f06c9f" mask="url(#am)" transform="translate(1495.845 1411.534)"/><path d="m-14.792 94.171h69.009v-95.171h-69.009z" fill="#d4666a" mask="url(#an)" transform="translate(1791.941 1243.154)"/><path d="m-4.351 138.74h57.88v-139.74h-57.88z" fill="#d4666a" mask="url(#ao)" transform="translate(1411.034 1188.36)"/><path d="m-1.316 53.134h56.722v-58.153h-56.722z" fill="#f06c9f" mask="url(#ap)" transform="translate(550.354 1089.151)"/><path d="m-5.805 52.222h47.238v-53.222h-47.238z" fill="#f06c9f" mask="url(#aq)" transform="translate(559.411 223.558)"/><g fill="#d4666a"><path d="m-9.317 49.216h54.21v-51.997h-54.21z" mask="url(#ar)" transform="translate(1446.183 228.353)"/><path d="m-3.624 48.163h45.788v-51.293h-45.788z" mask="url(#as)" transform="translate(172.948 748.334)"/><path d="m-1 48.748h41.221v-52.144h-41.221z" mask="url(#at)" transform="translate(1836.418 746.609)"/><path d="m-5.456 50.674h42.936v-53.394h-42.936z" mask="url(#au)" transform="translate(502.435 1436.595)"/><path d="m-1.293 58.017h36.308v-59.017h-36.308z" mask="url(#av)" transform="translate(1389.585 1380.777)"/><path d="m-1 38.639h38.039v-39.639h-38.039z" mask="url(#aw)" transform="translate(1668.843 933.912)"/><path d="m-2.731 32.75h33.482v-33.75h-33.482z" mask="url(#ax)" transform="translate(1085.12 289.548)"/><path d="m-2.253 32.778h29.206v-33.778h-29.206z" mask="url(#ay)" transform="translate(660.55 1175.196)"/><path d="m-12.343 349.026h134.21v-350.026h-134.21z" mask="url(#az)" transform="translate(1096.248 633.111)"/><path d="m-2.717 168.759h105.234v-172.636h-105.234z" mask="url(#aA)" transform="translate(1115.597 813.378)"/><path d="m-12.343 117.299h98.913v-118.299h-98.913z" mask="url(#aB)" transform="translate(1096.248 633.111)"/></g><path d="m52.572 45.003-52.009 15.289-14.665-49.886 52.009-15.289z" fill="#4f5a4b" mask="url(#aC)" transform="translate(1356.001 764.767)"/></g></svg>